<svg width="75" height="95" fill="none" xmlns="http://www.w3.org/2000/svg"><g opacity=".83" fill="#00B0FF"><path d="M39 .5l8.87 19.024-19.023 8.87C23.958 17.91 28.516 5.39 39 .5zM28.848 28.395l8.87 19.023-19.023 8.871c-4.889-10.484-.332-23.006 10.153-27.895zm8.87 19.023l-8.87-19.024 19.023-8.87c4.889 10.484.374 22.986-10.153 27.894zM18.694 56.29l19.024-8.871 8.87 19.024c-10.483 4.889-23.005.331-27.894-10.153zm27.895 10.152l19.023-8.87 8.871 19.023C64 81.484 51.477 76.926 46.59 66.442z"/><path d="M65.613 57.572l-19.024 8.87-8.87-19.023c10.526-4.909 23.005-.332 27.894 10.153z"/></g></svg>