<svg width="20" height="18" fill="none" xmlns="http://www.w3.org/2000/svg"><path fill-rule="evenodd" clip-rule="evenodd" d="M10.654 13.823c-.768.757-1.528 1.501-2.282 2.252-.263.262-.56.407-.937.387-.257-.014-.402-.13-.48-.378-.577-1.814-1.163-3.625-1.737-5.44-.056-.177-.14-.262-.315-.317-1.36-.42-2.716-.85-4.071-1.286a2.3 2.3 0 01-.578-.265c-.303-.203-.346-.527-.07-.762.256-.216.56-.397.87-.522C2.77 6.804 4.498 6.138 6.22 5.464L18.656.601c.795-.311 1.412.12 1.338.988-.05.572-.196 1.137-.314 1.702-.919 4.398-1.84 8.794-2.762 13.191l-.004.026c-.225 1.006-.947 1.28-1.769.668-1.428-1.065-2.852-2.134-4.278-3.201-.067-.05-.137-.098-.213-.152zm-3.155 1.385c.022-.104.037-.151.042-.2.09-.989.185-1.977.265-2.967a.738.738 0 01.25-.534c2.164-1.968 4.321-3.943 6.48-5.917.614-.561 1.23-1.12 1.839-1.688.064-.06.078-.174.115-.263-.094-.027-.2-.095-.28-.072a2.027 2.027 0 00-.535.23C12.465 5.843 9.26 7.895 6.051 9.94c-.164.104-.21.19-.145.389.509 1.546 1.002 3.098 1.5 4.648.02.061.048.12.093.23z" fill="#fff"/></svg>